<svg xmlns="http://www.w3.org/2000/svg" viewBox="0 0 473.35 168.37"><defs><style>.cls-1{fill:#948eba;}.cls-2{fill:#e096c1;}.cls-3{fill:#78d0e9;}</style></defs><title>logo</title><g id="Calque_2" data-name="Calque 2"><g id="Layer_1" data-name="Layer 1"><path class="cls-1" d="M172.46,47.65c.73,1.61,1.19,2.66,1.39,3.14a11.62,11.62,0,0,1,.55,2.42c-1-.8-1.82-1.49-2.55-2.05a23.81,23.81,0,0,0-2.17-1.52,14.37,14.37,0,0,0-2.43-1.15,21.59,21.59,0,0,0-3.14-.84A26.16,26.16,0,0,0,155,48a19.83,19.83,0,0,0-7.27,3.09,11.46,11.46,0,0,0-4.17,5.2,9.58,9.58,0,0,0,0,6.72,27.1,27.1,0,0,0,4.11,7.69,65.63,65.63,0,0,0,6.36,7.2,79.41,79.41,0,0,0,7.63,6.6q4.05,3.08,7.74,5.81c2.46,1.81,4.74,3.45,6.84,4.9A44.33,44.33,0,0,1,181.05,99c2.5-1.29,4.85-2.38,7-3.27s4.43-1.77,6.77-2.66h.73c.32.08.36.32.12.73a31.2,31.2,0,0,1-2.6,2L190,98.06l-3.08,2.24c-1,.73-1.92,1.38-2.73,1.94a19.37,19.37,0,0,1,4.6,6.36,7.74,7.74,0,0,1,.12,5.56,14.66,14.66,0,0,1-4,5.57,63.14,63.14,0,0,1-7.87,6.12,39.72,39.72,0,0,1-6.78,3.75,22.5,22.5,0,0,1-6.72,1.87,6.74,6.74,0,0,1-5-1.15c-1.25-1-1.68-2.78-1.27-5.44a30.22,30.22,0,0,1,7.14-12.11,137.8,137.8,0,0,1,12-11.26c0-.24-.78-.92-2.36-2.05L168,95.1c-2.46-1.78-5.16-3.83-8.11-6.18s-5.77-4.8-8.47-7.38a63.21,63.21,0,0,1-7.21-8.11A24.59,24.59,0,0,1,140,65.08a19.59,19.59,0,0,1-.67-9.08,18,18,0,0,1,2.54-6.48,14.94,14.94,0,0,1,3.88-4.05,16.46,16.46,0,0,1,3.45-1.94c1.85-.56,3.73-1.05,5.63-1.45a19.45,19.45,0,0,1,5.75-.37,17.35,17.35,0,0,1,5.87,1.64A23,23,0,0,1,172.46,47.65Zm-9.93,76.62a1.16,1.16,0,0,0,.61,1.39,4.71,4.71,0,0,0,2.78.43,19.65,19.65,0,0,0,4.91-1.15,42.22,42.22,0,0,0,7.08-3.45,17.28,17.28,0,0,0,4.66-4.48,11.1,11.1,0,0,0,1.93-4.78,7,7,0,0,0-.78-4.36,7.8,7.8,0,0,0-3.63-3.21,29.28,29.28,0,0,0-4.06,2.85,70.59,70.59,0,0,0-5.81,5.14,49.94,49.94,0,0,0-5.27,6A10.88,10.88,0,0,0,162.53,124.27Z"/><path class="cls-1" d="M196.31,85.29a37.27,37.27,0,0,1,5.08.67,42,42,0,0,1,5.45,1.45,36.81,36.81,0,0,1,4.9,2.06,14.72,14.72,0,0,1,3.69,2.6,6,6,0,0,1,1.7,4.06,22,22,0,0,1-.37,6,40.46,40.46,0,0,1-1.87,6.72,42.41,42.41,0,0,1-2.85,6.23,21.19,21.19,0,0,1-3.39,4.6,5.08,5.08,0,0,1-3.39,1.82,7.65,7.65,0,0,1-4.47-1.27,10.18,10.18,0,0,1-2.91-3.09,14.85,14.85,0,0,1-1.63-3.81,19.11,19.11,0,0,1-.67-3.45,110.39,110.39,0,0,1-.12-11.38,61.82,61.82,0,0,1,.85-8.23c-.25-.41-.49-.77-.73-1.09a11.61,11.61,0,0,0-.73-.91,5.29,5.29,0,0,0-.84-.79,3.76,3.76,0,0,0,1-.72A4.45,4.45,0,0,0,196.31,85.29Zm4.35,28.81a7.51,7.51,0,0,0,1,1,4.15,4.15,0,0,0,1.52.85A3.3,3.3,0,0,0,205,116a4.71,4.71,0,0,0,2.06-1.33,22.58,22.58,0,0,0,6.23-12.29,12.61,12.61,0,0,0-.12-5,5.69,5.69,0,0,0-1.75-3.15l-1.64-1a9,9,0,0,0-1.69-.79c-.69-.24-1.56-.5-2.6-.78s-2.43-.67-4.12-1.15a43.7,43.7,0,0,0-1.69,7.75,48.89,48.89,0,0,0-.43,7.08,34.83,34.83,0,0,0,.49,5.57A11.32,11.32,0,0,0,200.66,114.1Z"/><path class="cls-1" d="M227.29,116.28q.86.61,2.79-2.06a36,36,0,0,0,3.75-6.84,59.51,59.51,0,0,0,3-8.89,21.62,21.62,0,0,0,.72-8.23.84.84,0,0,1,.61-.91,4.88,4.88,0,0,1,1.39-.18,10.51,10.51,0,0,1,1.58.12,8.11,8.11,0,0,1,1.15.24q-.26,2.67-.67,6.72c-.28,2.7-.47,5.38-.55,8a45.09,45.09,0,0,0,.31,7.26q.42,3.27,2,4.24a2.87,2.87,0,0,0,3.08-.12,19.4,19.4,0,0,0,3.39-2.42q1.63-1.45,3-2.61c.88-.76,1.45-1,1.69-.78a9.92,9.92,0,0,1-2.06,4,16.23,16.23,0,0,1-3.57,3.27,13.32,13.32,0,0,1-4.23,1.88,6.53,6.53,0,0,1-4.06-.19c-.48-.07-.87-.54-1.15-1.39a22.48,22.48,0,0,1-.73-3q-.3-1.69-.48-3.63c-.12-1.29-.26-2.47-.42-3.52q-1,2-2.18,4.36t-2.42,4.6c-.81,1.45-1.58,2.71-2.3,3.76a4.67,4.67,0,0,1-1.82,1.81,5.13,5.13,0,0,1-3.75.42,3.27,3.27,0,0,1-1.82-1.51c-.48-.24-.83-1.07-1-2.48s-.36-3.21-.48-5.39-.18-4.64-.18-7.38V97.1c0-2.87,0-5.69-.12-8.48s-.21-5.34-.37-7.69a12.16,12.16,0,0,1,1.7.13c.48.08,1,.18,1.45.3a2.14,2.14,0,0,1,1.21.79q.6,2.77.18,9.8t-.66,17c0,.24,0,.71.06,1.39s.12,1.43.24,2.24a10.25,10.25,0,0,0,.61,2.3A2.53,2.53,0,0,0,227.29,116.28Z"/><path class="cls-1" d="M274.75,81.9q-.12-.36.36-.18a6.55,6.55,0,0,1,1.09.55,7.68,7.68,0,0,1,1.15.84,1.32,1.32,0,0,1,.54.85,73,73,0,0,1-5.26,18.64,97.82,97.82,0,0,1-9.75,17.56,4.39,4.39,0,0,1-3,1.57,2.05,2.05,0,0,1-2-1.33,44.62,44.62,0,0,1-1.51-6.48q-.68-3.93-1.33-8.35c-.45-2.95-1-5.93-1.52-9s-1.21-5.83-1.93-8.41c-.41-1.37-.35-2.2.18-2.48s1.67-.1,3.45.54c.24,0,.52,1,.85,3.09s.7,4.56,1.14,7.5,1,6,1.58,9.26a52.53,52.53,0,0,0,2.24,8.48c.24.16.72-.32,1.45-1.46s1.57-2.6,2.54-4.41,2-3.92,3.09-6.3,2.1-4.8,3-7.26,1.71-4.86,2.36-7.2A37.71,37.71,0,0,0,274.75,81.9Z"/><path class="cls-1" d="M289.88,87.35l2.06-.67a4.56,4.56,0,0,1,2.78-.18,6.84,6.84,0,0,1,5.39,1.82q1.88,1.94.3,7.5a30.59,30.59,0,0,1-6.11,10.29,60.3,60.3,0,0,1-9,7.87q1.2,3.15,3.63,3.51a9.3,9.3,0,0,0,5.08-.78,25.14,25.14,0,0,0,5.21-3.09c1.69-1.29,3.07-2.42,4.11-3.39q2.55-2.17,4.06-3.69a40.1,40.1,0,0,0,3.21-3.69c.24-.17.38-.14.42.06a2.49,2.49,0,0,1-.06.9c-.08.41-.2,1-.36,1.7-.24.56-.49,1.07-.73,1.51a8,8,0,0,1-1,1.45c-.44.53-1,1.15-1.75,1.88s-1.62,1.7-2.67,2.91q-1.81,1.69-3.51,3.33a24.3,24.3,0,0,1-3.57,2.84,12.19,12.19,0,0,1-4.11,1.69,13.46,13.46,0,0,1-5.15,0,17.16,17.16,0,0,1-3.87-1.81,9.13,9.13,0,0,1-2.24-2,8.5,8.5,0,0,1-1.15-1.88,6.77,6.77,0,0,1-.48-1.45,24.66,24.66,0,0,1-.49-6.53,37.23,37.23,0,0,1,2.42-10.66A30.73,30.73,0,0,1,285.64,91,13.61,13.61,0,0,1,289.88,87.35Zm-5.33,21.43a35.92,35.92,0,0,0,3.69-2.36,26.83,26.83,0,0,0,4-3.51,24.19,24.19,0,0,0,3.27-4.42A11.2,11.2,0,0,0,297,93.4a3.6,3.6,0,0,0-.12-2.54q-.24-.36-.48-.36a3.76,3.76,0,0,0-4.12.6,15.27,15.27,0,0,0-3.75,4.48,33,33,0,0,0-2.85,6.48A21.86,21.86,0,0,0,284.55,108.78Z"/><path class="cls-1" d="M314.94,84.69q0,3.39-.07,6.78T314.75,98q-.06,3.15-.12,5.93c0,1.86-.1,3.52-.18,5a11.92,11.92,0,0,1,.55-2.36c.36-1.25.86-2.68,1.51-4.3s1.35-3.33,2.12-5.14a33.21,33.21,0,0,1,2.48-4.85,15,15,0,0,1,2.72-3.33,2.5,2.5,0,0,1,2.61-.72,7.33,7.33,0,0,1,3.75,3.51A19.79,19.79,0,0,1,331.76,97c.32,2,.65,4.18,1,6.6a29.52,29.52,0,0,0,2.18,7.63,5.22,5.22,0,0,0,2.12,2.66,10.51,10.51,0,0,0,2.66,1.21,11.17,11.17,0,0,0,2.06.43q.78.06.54.42c-2,1.53-3.75,2.06-5.2,1.57a6.94,6.94,0,0,1-3.69-3.2,23.91,23.91,0,0,1-2.49-5.94c-.64-2.3-1.23-4.51-1.75-6.65s-1-4-1.39-5.45S326.92,94,326.44,94c-.73.08-1.52.77-2.36,2.06a36.69,36.69,0,0,0-2.61,4.84c-.89,1.94-1.73,4-2.54,6.35s-1.55,4.46-2.24,6.48-1.23,3.75-1.63,5.21-.65,2.34-.73,2.66a11.73,11.73,0,0,0-2.24.12c-.28.08-.75-.32-1.39-1.21q.6-10.65.42-20.16t-.54-16.52c0-.73.18-1.09.54-1.09a2.11,2.11,0,0,1,1.21.48c.45.33.91.65,1.39,1A2.33,2.33,0,0,0,314.94,84.69Z"/><path class="cls-2" d="M367,86c-.08.48-.27,1.49-.55,3s-.58,3.32-.91,5.38-.6,4.22-.84,6.48-.39,4.4-.43,6.41a23.73,23.73,0,0,0,.37,5.15c.28,1.41.74,2.28,1.39,2.6q2.78,1.34,5.69-.91a46.92,46.92,0,0,0,6.78-6.84c.24,0,.26.33.06,1a10.49,10.49,0,0,1-1,2.12l-1.33,2.3a8.46,8.46,0,0,1-1,1.51,19.69,19.69,0,0,1-2.79,2.73,16.46,16.46,0,0,1-3.87,2.42,8.43,8.43,0,0,1-3.93.79,3.86,3.86,0,0,1-3.09-2.18,10.77,10.77,0,0,1-.73-3.57,38.55,38.55,0,0,1,0-4.3c.08-1.45.2-2.79.37-4s.28-2.09.36-2.66a65.39,65.39,0,0,1-5.81,9,36.74,36.74,0,0,1-6.42,6.66,11.1,11.1,0,0,1-5.81,2.6q-2.65.18-4.11-3.09a14.83,14.83,0,0,1,0-7.08,26.59,26.59,0,0,1,2.54-7.08,74.43,74.43,0,0,1,5.33-8,35.67,35.67,0,0,1,5.93-6.17,21.1,21.1,0,0,1,6.59-3.7A15.09,15.09,0,0,1,367,86Zm-22.76,30.75q1.22.24,3.87-1.82a33.09,33.09,0,0,0,5.57-5.75,46.76,46.76,0,0,0,5.27-8.59A34.09,34.09,0,0,0,362,90.26h-1.39a4.33,4.33,0,0,0-2.12.72,34.08,34.08,0,0,0-7.86,7.08,40.57,40.57,0,0,0-5.09,7.87,22.5,22.5,0,0,0-2.18,6.84C343.14,114.79,343.42,116.12,344.23,116.77Z"/><path class="cls-2" d="M382.12,84.69q0,3.39-.06,6.78c-.05,2.26-.08,4.44-.12,6.53s-.09,4.08-.13,5.93-.1,3.52-.18,5a11.92,11.92,0,0,1,.55-2.36c.36-1.25.86-2.68,1.51-4.3s1.35-3.33,2.12-5.14a34.23,34.23,0,0,1,2.48-4.85A15.28,15.28,0,0,1,391,88.92a2.5,2.5,0,0,1,2.61-.72,7.33,7.33,0,0,1,3.75,3.51A19.43,19.43,0,0,1,398.94,97c.32,2,.65,4.18,1,6.6a29.52,29.52,0,0,0,2.18,7.63,5.28,5.28,0,0,0,2.12,2.66,10.83,10.83,0,0,0,2.66,1.21,11.17,11.17,0,0,0,2.06.43c.52,0,.71.18.54.42-2,1.53-3.75,2.06-5.2,1.57a7,7,0,0,1-3.69-3.2,23.53,23.53,0,0,1-2.48-5.94c-.65-2.3-1.23-4.51-1.76-6.65s-1-4-1.39-5.45S394.1,94,393.62,94c-.73.08-1.52.77-2.36,2.06a36.69,36.69,0,0,0-2.61,4.84c-.89,1.94-1.73,4-2.54,6.35s-1.55,4.46-2.24,6.48-1.23,3.75-1.63,5.21-.65,2.34-.73,2.66a11.73,11.73,0,0,0-2.24.12c-.28.08-.74-.32-1.39-1.21q.6-10.65.42-20.16t-.54-16.52c0-.73.18-1.09.54-1.09a2.11,2.11,0,0,1,1.21.48c.45.33.91.65,1.4,1A2.27,2.27,0,0,0,382.12,84.69Z"/><path class="cls-2" d="M443.73,108.41c.16.17.14.45-.06.85a8.4,8.4,0,0,1-.84,1.33c-.37.49-.73,1-1.09,1.39s-.63.75-.79.91c-1.94,2.18-3.67,4.06-5.21,5.63s-2.78,2.93-3.75,4.06c0,.08,0,.54-.06,1.39s-.06,1.31-.06,1.39c-.16,2.74-.22,5.51-.18,8.29a53.24,53.24,0,0,1-.55,8.42,75,75,0,0,1-1.51,7.8,33.57,33.57,0,0,1-1.63,4.85,18.3,18.3,0,0,1-1.76,3.14l-2,2.85a11.66,11.66,0,0,1-2.18,2.3c-.8.64-1.89,1.41-3.26,2.3a23.12,23.12,0,0,1-5.81,2.54,11.53,11.53,0,0,1-5.57.3,7.39,7.39,0,0,1-4.3-2.72c-1.17-1.45-1.83-3.63-2-6.54a22.07,22.07,0,0,1,1.7-9.56,45.65,45.65,0,0,1,4.6-8.6,52.44,52.44,0,0,1,5.2-6.53q2.55-2.67,3.51-3.63,1.58-1.69,2.85-2.91a33.57,33.57,0,0,1,2.6-2.24c.89-.68,1.84-1.43,2.84-2.24s2.2-1.77,3.58-2.9a48.81,48.81,0,0,0,.6-6.12q.12-3.19,0-6.59a27,27,0,0,1-4.66,7,26.47,26.47,0,0,1-4.48,3.81,11.42,11.42,0,0,1-3.27,1.57c-.84.21-1.19.31-1,.31a13.7,13.7,0,0,1-3.7.18,4.86,4.86,0,0,1-2.18-.73,4,4,0,0,1-1.21-1.27,7.76,7.76,0,0,1-.66-1.45,16.46,16.46,0,0,1,.06-6.48,30.29,30.29,0,0,1,2-6.35,43.39,43.39,0,0,1,2.9-5.57,34.46,34.46,0,0,1,2.91-4.12c.16-.16.54-.58,1.15-1.27a26.34,26.34,0,0,1,2.36-2.3,27.19,27.19,0,0,1,3.57-2.6,28.32,28.32,0,0,1,4.9-2.42,24.47,24.47,0,0,1,5.69-.55,8.06,8.06,0,0,1,4.72,1.4c-.65.24-1.63.54-3,.9s-2.2.63-2.6.79v.24c0,.24.08.37.24.37-1.37-.33-3.51.24-6.41,1.69s-6.05,4.24-9.44,8.35A38.38,38.38,0,0,0,413,105a32,32,0,0,0-1.76,4.48,11.91,11.91,0,0,0-.54,3.21,13.5,13.5,0,0,0,.12,2.06,1.46,1.46,0,0,0,.84.85,2.73,2.73,0,0,0,1.82.12,13.1,13.1,0,0,0,5.87-3.21,34.53,34.53,0,0,0,5-5.63,52.37,52.37,0,0,0,3.82-6.17c1.05-2,1.81-3.63,2.3-4.85a14,14,0,0,0,1.27-5.14c0-1.57,0-2.36-.18-2.36H432q.12,0,.06.06a3,3,0,0,1-.79.18,1.14,1.14,0,0,1,.49-.3,2.34,2.34,0,0,0,.48-.18c-.08-.08-.06-.18.06-.31a.6.6,0,0,1,.43-.18q0-.24.6-.48l.73-.24.36-.25a3,3,0,0,0,.61-.36.41.41,0,0,1,.3-.12,2.46,2.46,0,0,1,.67.18c.32.12.88.3,1.69.55A43,43,0,0,0,435.8,94c-.52,2.78-1,5.59-1.39,8.41s-.74,5.51-1,8-.54,4.54-.78,6a23.12,23.12,0,0,1,2.84-2.3q1.88-1.32,3.69-2.66Q441.32,110,443.73,108.41Zm-15.25,21q.36-2.79-.12-3.39a.49.49,0,0,0-.61-.25c-2.17,1.78-3.95,3.27-5.32,4.48s-2.3,2-2.79,2.42a61.1,61.1,0,0,0-8.65,9.63,32,32,0,0,0-5.33,14.52,9.71,9.71,0,0,0,1.51,5.75,6.4,6.4,0,0,0,6.6.91,20,20,0,0,0,6.6-4.3,29.89,29.89,0,0,0,5.69-11.19Q428.24,140.73,428.48,129.36Z"/><path class="cls-2" d="M452.21,87.35l2.05-.67a4.59,4.59,0,0,1,2.79-.18,6.84,6.84,0,0,1,5.39,1.82q1.88,1.94.3,7.5a30.59,30.59,0,0,1-6.11,10.29,60.3,60.3,0,0,1-9,7.87q1.2,3.15,3.63,3.51a9.3,9.3,0,0,0,5.08-.78,25.14,25.14,0,0,0,5.21-3.09q2.54-1.94,4.11-3.39,2.55-2.17,4.06-3.69a40.1,40.1,0,0,0,3.21-3.69c.24-.17.38-.14.42.06a2.49,2.49,0,0,1-.06.9c-.08.41-.2,1-.36,1.7-.24.56-.49,1.07-.73,1.51a8.58,8.58,0,0,1-1,1.45c-.44.53-1,1.15-1.75,1.88s-1.62,1.7-2.67,2.91q-1.82,1.69-3.51,3.33a24.3,24.3,0,0,1-3.57,2.84,12.19,12.19,0,0,1-4.11,1.69,13.46,13.46,0,0,1-5.15,0,17.16,17.16,0,0,1-3.87-1.81,9.13,9.13,0,0,1-2.24-2,8.5,8.5,0,0,1-1.15-1.88,7.49,7.49,0,0,1-.49-1.45,25.16,25.16,0,0,1-.48-6.53,37.23,37.23,0,0,1,2.42-10.66A30.73,30.73,0,0,1,448,91,13.61,13.61,0,0,1,452.21,87.35Zm-5.33,21.43a35.92,35.92,0,0,0,3.69-2.36,27.34,27.34,0,0,0,4-3.51,24.19,24.19,0,0,0,3.27-4.42,11.2,11.2,0,0,0,1.51-5.09,3.6,3.6,0,0,0-.12-2.54c-.16-.24-.32-.36-.49-.36a3.75,3.75,0,0,0-4.11.6,15,15,0,0,0-3.75,4.48,32.46,32.46,0,0,0-2.85,6.48A21.86,21.86,0,0,0,446.88,108.78Z"/><path class="cls-2" d="M50.89,133.66,46,128.22s16.46-51.68,55-91l3,4.76S55.78,100.88,50.89,133.66Z"/><path class="cls-2" d="M72.38,70.69S57.55,46.62,57.28,42.94l2.18-6.8S72,60.08,76.59,64.3Z"/><path class="cls-2" d="M87.47,84l-3.94,6.12s17.13,29.51,17.68,45.28l6.39-7.75S98.08,95.3,87.47,84Z"/><path class="cls-2" d="M61,33.56l2.18,4.22s4.62-3.27,16.18-3.68,17.27,4.76,17.27,4.76l3-4.62S94.54,25,79.86,25,61,33.56,61,33.56Z"/><path class="cls-3" d="M103.93,45.53S103.38,59.94,86.52,81,58.1,141.27,58.1,141.27l-6-5.3s9.79-32.64,22-49.51S103.93,45.53,103.93,45.53Z"/><path class="cls-3" d="M71.29,72.32l-5,6.39S53.06,59.54,55.78,48C55.78,48,69.25,71.37,71.29,72.32Z"/><path class="cls-3" d="M82.17,91.36s15.64,27.74,17.13,45.7l-5.84,4.76s-8-31-16.19-42Z"/><path class="cls-3" d="M63.67,39.82l3.81,6.39a41.78,41.78,0,0,1,10.06-1.5,53.2,53.2,0,0,1,13.2,1.5l4.76-6.12A37,37,0,0,0,63.67,39.82Z"/><path class="cls-1" d="M100.58,159.42a78.42,78.42,0,0,1-15,2.43,74.46,74.46,0,0,1-15.82-.53,79.3,79.3,0,0,1-30.67-11A82,82,0,0,1,15.29,128,83.18,83.18,0,0,1,2.34,99.66a80.14,80.14,0,0,1,16-70.16A84.19,84.19,0,0,1,32,16.4,82.21,82.21,0,0,1,48.24,6.86,81,81,0,0,1,84.39.07c0,.41-4,.91,0,1.23a57.63,57.63,0,0,1,9.1,1.39A24.47,24.47,0,0,1,98,4.1c1.84.79,1.74,1.19,1.64,1.58,0,.22-2.88-.45-5.26-.86s-4.3-.66-2.42-.17c-1.43-.25-3-.34-4.6-.49S84,4,82.42,4a68.92,68.92,0,0,0-8.78.43c-4.78.65-6.64,1.08-.91.55,1,0,2.64-.08,4.66-.18l3.27,0c1.15,0,2.34.07,3.53.11.6,0,1.2,0,1.78.08l1.75.17c1.14.13,2.24.2,3.23.39a29.55,29.55,0,0,1,4.53,1c1.8.7.81.8-.17.91a2.44,2.44,0,0,0-1.11.25c-.15.15.06.29.94.65l3.28.7c1.25.29,2.58.7,3.92,1.06a73.73,73.73,0,0,1,7,2.48c3.24,1.77-3.86-.25-.47,1.14a86.84,86.84,0,0,1,16.05,9.4,76.12,76.12,0,0,1,15,15.08c-.17.12.24,1,.09,1.11s-.28-.08-.76-.61-1.22-1.33-2.36-2.71A71.82,71.82,0,0,0,17.66,48.19a71.27,71.27,0,0,0-7.32,22.37,72.7,72.7,0,0,0,.36,23.55,70.56,70.56,0,0,0,7.94,22.11A71.75,71.75,0,0,0,53.1,147.16a71.36,71.36,0,0,0,22.76,5.45,72.22,72.22,0,0,0,23.3-2.11,71.76,71.76,0,0,0,49.5-45.77c1.1-3.38,1.7-5.29,2.06-6.06s.4-.41.23.69-.54,3-1,5.27c-.31,1.11-.7,2.31-1.09,3.56a31.37,31.37,0,0,1-1.35,3.8c.74-1.65,1.08-2.49,1.52-3.3a18.88,18.88,0,0,0,1.41-3.36c.29.1,0,1.93-1,5.53-.28.88-.68,1.84-1.11,2.92s-.87,2.29-1.51,3.54l-2.15,4a18.62,18.62,0,0,1-1.34,2.16l-1.52,2.24a78.24,78.24,0,0,0,5.92-9.51c1.81-3.27.55.28.91.48-.38.87-.92,1.66-1.35,2.43l-1.22,2.1a12.72,12.72,0,0,0-1.08,2.12l.69.45c.55-.78,1.11-1.85,1.79-3l1-1.77a18,18,0,0,0,1-1.89,73.9,73.9,0,0,0,3.18-7c-.37.88-.64,1.81-1.06,2.61L150.6,115a8.57,8.57,0,0,0-.88,2.25l.72.38a25.77,25.77,0,0,1-1.45,2.71l-1.71,2.9-.44.75-.52.72-1,1.45-2.12,3c-.79.93-1.58,1.85-2.35,2.77s-1.51,1.85-2.33,2.66c-1.64,1.62-3.11,3.25-4.52,4.59l.42.45c1.49-1.27,3-2.89,4.66-4.52.83-.82,1.54-1.79,2.33-2.7l2.34-2.83,2.09-3,1-1.48.51-.73.44-.76c.59-1,1.16-2,1.7-2.92a30.18,30.18,0,0,0,1.51-2.72c-.36.92-.73,1.56-1,2.07a8.7,8.7,0,0,0-.44,1.09c-.14.49,0,.57.17.67l-1.11,1.94a17,17,0,0,1-1.19,1.88l-2.58,3.63-.65.91-.72.85-1.45,1.69a42.49,42.49,0,0,1-3,3.32L136,139.13c-1,1.05-2.21,2-3.31,3-2.16,2-4.61,3.74-6.9,5.65l4.81-3.51c1.52-1.28,3-2.59,4.51-3.88a57,57,0,0,1-14.56,11.23c-1.64.91-3.38,1.7-5.07,2.55l-1.28.62-1.31.52-2.6,1c-.86.33-1.69.68-2.53,1l-2.51.77-2.38.74A20.74,20.74,0,0,1,100.58,159.42Z"/></g></g></svg>